<svg xmlns="http://www.w3.org/2000/svg" xmlns:xlink="http://www.w3.org/1999/xlink" width="366" height="44" viewBox="0 0 366 44">
  <defs>
    <clipPath id="clip-path">
      <rect id="Rectangle_2683" data-name="Rectangle 2683" width="366" height="44" transform="translate(220 32)" fill="#fff" stroke="#707070" stroke-width="1"/>
    </clipPath>
  </defs>
  <g id="Mask_Group_700" data-name="Mask Group 700" transform="translate(-220 -32)" clip-path="url(#clip-path)">
    <g id="Layer_2" data-name="Layer 2" transform="translate(220.523 32)">
      <g id="plantilla_pagina_sb_Image" data-name="plantilla pagina sb Image">
        <path id="Path_1191" data-name="Path 1191" d="M64.4,44a90.5,90.5,0,0,1-17.981-2.1l-.75-.152,2.4-9.488a103.443,103.443,0,0,0,13.392,2.034c.255.012.617.033,1.03.058,1.4.082,3.3.191,3.907.191,6.408,0,7.321-.775,7.321-3.643s-1.8-3.246-8.659-4.245c-.318-.047-.988-.133-1.7-.234-1.02-.131-2.176-.278-2.594-.348-12.64-2.118-15.2-4.2-15.2-13.406C45.558,2.158,53.476,0,65.348,0a97.679,97.679,0,0,1,17.6,1.9l-2.214,9.42L79.7,11.085A60.391,60.391,0,0,0,67.693,9.371c-1.24-.079-2.41-.117-3.472-.117-1.249,0-2.169.051-2.9.1-3.767.262-4.437,1.259-4.474,3.269-.035,2.468,1.016,3.047,7.487,4.126.234.04,1.168.17,2.069.3.74.105,1.436.2,1.635.234,14.378,2.286,17.2,3.624,17.2,13.8C85.235,40.5,79.582,44,64.4,44Z" fill="#fff"/>
        <path id="Path_1192" data-name="Path 1192" d="M90.959,43.32V.659h25.407c10.153,0,15.658,1.679,15.658,10.541,0,6.76-2.531,8.8-6.613,9.906v.026c5.278,1.067,7.737,4.306,7.737,10.2,0,8.855-4.1,11.994-15.646,11.994Zm11.443-8.79h15.085c2.8,0,4.033-1.345,4.033-4.365,0-3.057-1.28-4.479-4.033-4.479H102.4Zm0-17h13.962c2.489,0,4.035-.67,4.035-4.014,0-3.23-1.42-3.841-4.035-3.841H102.4Z" fill="#fff"/>
        <path id="Path_1193" data-name="Path 1193" d="M39.484,33.884a9.688,9.688,0,0,1-8.809,9.647c-.78.07-1.651.089-2.291.089A28.179,28.179,0,0,1,.467,20.083c-.133-.817-.278-1.847-.353-2.569S0,15.914,0,15.092a27.24,27.24,0,0,1,.329-4.236,26.4,26.4,0,0,1,.6-2.87.035.035,0,0,1,.04-.035.04.04,0,0,1,.037.035c.023.11.049.22.077.327a6.875,6.875,0,0,0,3.725,4.421c.14.07.271.14.434.21l22.418,9.521S32.6,24.45,34.138,25.23A9.693,9.693,0,0,1,39.484,33.884Z" fill="#fff"/>
        <path id="Path_1194" data-name="Path 1194" d="M13.958,8.932h0c-.082-.028-.161-.056-.234-.089l-.11-.047A4.236,4.236,0,0,1,15.249.677H41c.047,0,.07.014.072.065v.1a23.513,23.513,0,0,1-1.511,8.318,20.137,20.137,0,0,1-3.015,5.532,8.152,8.152,0,0,1-3.241,2.433.234.234,0,0,1-.1-.012L28.7,15.2Z" fill="#86a4b2"/>
        <path id="Path_1195" data-name="Path 1195" d="M154.3,43.32h-1.343l-1.9-2.643h-1.868V43.32H148.02V35.909h3.008c1.936,0,2.865.539,2.865,2.38,0,1.4-.572,1.983-1.611,2.2Zm-3.29-3.55c1.042,0,1.7-.152,1.7-1.462s-.7-1.485-1.721-1.485h-1.824v2.947Z" fill="#86a4b2"/>
        <path id="Path_1196" data-name="Path 1196" d="M158.775,35.85h5.056v.957h-3.893v2.1h3.022v.946h-3.022v2.461h3.893v.934h-5.056Z" fill="#86a4b2"/>
        <path id="Path_1197" data-name="Path 1197" d="M168.411,35.85h3.12c1.936,0,2.863.591,2.863,2.431s-.962,2.44-2.884,2.44h-1.936v2.543h-1.168Zm3.12,3.97c.974,0,1.7-.14,1.7-1.513s-.761-1.537-1.721-1.537h-1.936v3.045Z" fill="#86a4b2"/>
        <path id="Path_1198" data-name="Path 1198" d="M178.211,40.633V35.85h1.168v4.7c0,1.434.549,1.831,2.1,1.831s2.081-.327,2.081-1.81V35.85h1.128v4.783c0,2.2-1.084,2.744-3.232,2.744S178.211,42.867,178.211,40.633Zm3.5-7.136H183.4l-1.957,1.856h-.759Z" fill="#86a4b2"/>
        <path id="Path_1199" data-name="Path 1199" d="M189.582,35.85h3.176c1.667,0,2.606.388,2.606,1.964a1.409,1.409,0,0,1-1.168,1.6,1.574,1.574,0,0,1,1.375,1.789c0,1.495-.883,2.064-2.606,2.064h-3.384Zm3.176,3.213c.773,0,1.443-.152,1.443-1.149s-.682-1.149-1.443-1.149h-2.025v2.3Zm.212,3.3c.773,0,1.443-.234,1.443-1.219s-.67-1.231-1.443-1.231h-2.237v2.45Z" fill="#86a4b2"/>
        <path id="Path_1200" data-name="Path 1200" d="M200.207,35.85h1.168v6.478h4.252v.934h-5.42Z" fill="#86a4b2"/>
        <path id="Path_1201" data-name="Path 1201" d="M209.573,35.85h1.168v7.414h-1.168Z" fill="#86a4b2"/>
        <path id="Path_1202" data-name="Path 1202" d="M215.827,39.563c0-3.335,1.488-3.834,3.456-3.834a8.909,8.909,0,0,1,2.272.255l-.212.915a11.785,11.785,0,0,0-2.081-.2c-1.523,0-2.2.528-2.2,2.583V39.8c0,2.013.7,2.634,2.225,2.634a9.46,9.46,0,0,0,2.071-.234l.212.915a8.56,8.56,0,0,1-2.3.255C217.294,43.365,215.827,42.9,215.827,39.563Z" fill="#86a4b2"/>
        <path id="Path_1203" data-name="Path 1203" d="M226.943,43.264h-1.151l3.143-7.473h1.051l3.143,7.473h-1.207l-.661-1.6H227.6Zm2.494-5.978-1.452,3.475h2.9Z" fill="#86a4b2"/>
        <path id="Path_1204" data-name="Path 1204" d="M243.917,35.85h2.83c2.2,0,3.468.621,3.468,3.713s-1.263,3.7-3.468,3.7h-2.83Zm2.819,6.518c1.455,0,2.249-.537,2.249-2.569v-.488c0-2.032-.794-2.552-2.249-2.552H245.08v5.6Z" fill="#86a4b2"/>
        <path id="Path_1205" data-name="Path 1205" d="M254.458,39.563c0-3.174,1.544-3.834,3.578-3.834s3.559.642,3.559,3.813-1.544,3.832-3.58,3.832S254.458,42.734,254.458,39.563Zm5.917.252V39.3c0-2.116-.894-2.625-2.349-2.625s-2.335.488-2.335,2.6V39.8c0,2.125.906,2.643,2.335,2.643S260.376,41.94,260.376,39.815Z" fill="#86a4b2"/>
        <path id="Path_1206" data-name="Path 1206" d="M269.562,43.264l-2.429-5.278v5.278h-1.063V35.85H267.3l2.774,6,2.774-6h1.231v7.414h-1.142V37.987l-2.426,5.278Z" fill="#86a4b2"/>
        <path id="Path_1207" data-name="Path 1207" d="M279.076,35.85h1.168v7.414h-1.168Z" fill="#86a4b2"/>
        <path id="Path_1208" data-name="Path 1208" d="M285.215,35.85h1.142l4.094,5.511V35.85h1.119v7.414h-1.018L286.334,37.6V43.26h-1.119Z" fill="#86a4b2"/>
        <path id="Path_1209" data-name="Path 1209" d="M296.73,35.85H297.9v7.414H296.73Z" fill="#86a4b2"/>
        <path id="Path_1210" data-name="Path 1210" d="M302.6,39.563c0-3.335,1.485-3.834,3.456-3.834a8.9,8.9,0,0,1,2.27.255l-.212.915a11.737,11.737,0,0,0-2.081-.2c-1.52,0-2.2.528-2.2,2.583V39.8c0,2.013.7,2.634,2.228,2.634a9.453,9.453,0,0,0,2.069-.234l.213.915a8.547,8.547,0,0,1-2.3.255C304.063,43.365,302.6,42.9,302.6,39.563Z" fill="#86a4b2"/>
        <path id="Path_1211" data-name="Path 1211" d="M313.427,43.264h-1.151l3.143-7.473h1.053l3.143,7.473h-1.21l-.659-1.6h-3.662Zm2.5-5.978-1.455,3.475h2.9Z" fill="#86a4b2"/>
        <path id="Path_1212" data-name="Path 1212" d="M324.01,35.85h1.142l4.094,5.511V35.85h1.119v7.414h-1.018L325.129,37.6V43.26H324.01Z" fill="#86a4b2"/>
        <path id="Path_1213" data-name="Path 1213" d="M335.915,43.264h-1.154l3.143-7.473h1.053l3.143,7.473h-1.21l-.659-1.6h-3.659Zm2.494-5.978-1.455,3.475h2.9Z" fill="#86a4b2"/>
        <path id="Path_1214" data-name="Path 1214" d="M200.011,11.335l.42-1.868h-6.8V7.291h5.7l.217-1.868h-5.92V3.234h6.494l.325-1.868h-9.264v9.971h8.822Zm146.439,0h2.443V1.359h-2.443ZM243.287,3.69h3.757v7.648h2.445V3.69H253.4v-2.2H243.287Zm93.609-.56c1.868,0,3.358.065,4.131.124l.362-1.674a23.983,23.983,0,0,0-4.493-.371c-3.293,0-4.463,1.635-4.463,3.036V8.517c0,1.4,1.168,3.036,4.463,3.036a33.172,33.172,0,0,0,4.01-.234l.432-1.868a41.5,41.5,0,0,1-4.437.182c-1.275,0-2.2-.7-2.2-1.646V4.778c0-.955.92-1.649,2.2-1.649Zm-70.374.105.325-1.868H257.59v9.971h8.825l.42-1.868h-6.8V7.291h5.7l.215-1.868h-5.92V3.234Zm45.07,0,.325-1.868h-9.257v9.971h8.822l.423-1.868h-6.8V7.291h5.7l.215-1.868H305.1V3.234ZM152.564,9.6c-.121,0-.381-.021-.633-.042l-.432-.033c-1.077-.058-2.569-.213-3.146-.3l-.409,1.9a27.959,27.959,0,0,0,4.222.327c3.528,0,4.841-.789,4.841-2.919,0-2.3-.654-2.6-3.993-3.139l-.332-.03h-.028l-.3-.04c-1.635-.252-2.032-.311-2.032-1.168,0-.806.525-.953,1.56-.953a3.534,3.534,0,0,1,.427.023c.124,0,.234.016.29.016a33.034,33.034,0,0,1,3.416.3l.411-1.936a30.646,30.646,0,0,0-4.168-.355c-3.075,0-4.388.857-4.388,2.863,0,2.127.525,2.59,3.5,3.089l.617.093.28.042c1.81.287,2.239.355,2.239,1.219,0,.943-.56,1.037-1.943,1.037ZM171.556,7.87V1.4h-2.31v6.37c0,1.5-1.336,1.635-2.7,1.635-1.333,0-2.7-.2-2.7-1.653V1.4H161.4V7.9c0,2.139.871,3.561,5.123,3.561,3.573,0,5.028-1.039,5.028-3.589ZM187.116,5c0-3.082-1.2-3.6-3.907-3.6H176.67v9.92h2.41V8.64h4.115c2.657,0,3.921-.537,3.921-3.638Zm-3.907,1.849H179.08V3.225h4.115c.56,0,1.5,0,1.5,1.805,0,1.681-.766,1.821-1.483,1.821Zm30.748,1.474.234-.077c1.182-.406,1.688-1.4,1.688-3.358-.007-2.963-1.039-3.489-3.914-3.489h-6.653v9.92h2.41v-2.8h3.615l1.868,2.8h2.737Zm-1.992-1.614h-4.243V3.225H212.1c.652,0,1.345.133,1.345,1.7-.007,1.791-.892,1.791-1.481,1.791ZM237.206,7.83,231.781,1.4h-2.538v9.92h2.312V4.437l5.866,6.884h2.1V1.4H237.21ZM223.491,1.4h-2.438v9.92h2.438Zm56.094,6.431L274.154,1.4h-2.538v9.92h2.312V4.437l5.866,6.887h2.1V1.4h-2.312Zm45.27,0L319.431,1.4h-2.543v9.92h2.31V4.437l5.864,6.884h2.1V1.4h-2.31Zm35.5-6.5h-2.13L353.6,11.323h2.527l.642-1.427h4.869l.642,1.427h2.669ZM357.532,8.1l1.7-3.8,1.679,3.8ZM296.917,2.265c-.813-.719-2.074-.864-3.725-.864h-5.728v9.92h5.726c3.578,0,4.848-.75,4.848-4.962,0-2.125-.348-3.386-1.128-4.091ZM295.495,6.7c0,1.913-.357,2.884-2.31,2.884H289.9V3.211h3.288c1.964,0,2.31.906,2.31,2.814ZM172,19.275l.325-1.868H163.07v9.976h8.822l.42-1.868h-6.8V23.329h5.45a2.2,2.2,0,0,1,.255,0l.215-1.868h-5.92V19.275Zm61.586-.107c1.868,0,3.356.065,4.129.126l.362-1.674a23.892,23.892,0,0,0-4.491-.374c-3.295,0-4.465,1.635-4.465,3.036v4.28c0,1.4,1.168,3.036,4.465,3.036a33.652,33.652,0,0,0,4.007-.234l.434-1.868a41.54,41.54,0,0,1-4.437.182c-1.275,0-2.2-.7-2.2-1.649V20.818C231.384,19.861,232.311,19.167,233.586,19.167Zm-30.58-1.8-4.619,9.99h2.529l.64-1.427h4.876l.642,1.427h2.669l-4.621-9.99Zm-.7,6.772,1.7-3.8,1.679,3.8Zm19.441-.283-5.427-6.419h-2.538v9.92h2.312V20.475l5.866,6.884h2.1v-9.92h-2.312Zm29.424-5.651c-.829-.663-2.032-.946-4.019-.946-3.461,0-5.464.838-5.464,5.137,0,2.074.448,3.4,1.4,4.175.829.668,2.032.953,4.019.953,3.461,0,5.464-.843,5.464-5.156.012-2.055-.439-3.381-1.4-4.157Zm-1.284,4.586c0,2.116-.7,2.828-2.735,2.828s-2.767-.747-2.767-2.856v-.8c0-2.076.663-2.744,2.735-2.744s2.767.7,2.767,2.772Zm12.358-1.352-.334-.042c-.14-.019-.278-.035-.329-.044-1.635-.25-2.032-.311-2.032-1.168,0-.808.525-.955,1.558-.955a3.215,3.215,0,0,1,.427.026l.292.016a33.278,33.278,0,0,1,3.416.3l.411-1.934a30.338,30.338,0,0,0-4.175-.332c-3.078,0-4.39.855-4.39,2.863,0,2.127.525,2.59,3.5,3.087l.577.089.32.049c1.812.285,2.242.353,2.242,1.217,0,.934-.563,1.039-1.948,1.039-.119,0-.376-.023-.63-.042-.166-.014-.327-.028-.432-.033-1.077-.058-2.569-.215-3.148-.3l-.406,1.906a27.932,27.932,0,0,0,4.222.327c3.529,0,4.841-.792,4.841-2.919C266.237,22.28,265.583,21.974,262.244,21.442Zm-68.655.934-.091-.019V22.04l.089-.026c.934-.248,1.46-.7,1.46-2.211,0-1.994-1.21-2.359-3.592-2.359h-5.934v9.92h6.2c2.686,0,3.592-.684,3.592-2.709,0-1.719-.922-2.123-1.723-2.284Zm-5.675-3.127h3.531c.7,0,1.154.189,1.154,1.109,0,1.011-.584,1.149-1.154,1.149h-3.531Zm3.806,6.354h-3.806V23.119h3.806c.766,0,1.154.425,1.154,1.261S192.491,25.6,191.721,25.6Zm-34.122-7.3c-.8-.722-2.067-.871-3.718-.871h-5.726v9.922h5.735c3.578,0,4.848-.75,4.848-4.96C158.729,20.272,158.381,19.011,157.6,18.308Zm-1.422,4.437c0,1.91-.357,2.882-2.31,2.882h-3.288V19.249h3.288c1.964,0,2.31.908,2.31,2.8Z" fill="#fff"/>
      </g>
    </g>
  </g>
</svg>
